<?xml version="1.0" encoding="utf-8"?>
<!-- Generator: Adobe Illustrator 16.0.0, SVG Export Plug-In . SVG Version: 6.00 Build 0)  -->
<!DOCTYPE svg PUBLIC "-//W3C//DTD SVG 1.1//EN" "http://www.w3.org/Graphics/SVG/1.1/DTD/svg11.dtd">
<svg version="1.1" id="Capa_1" xmlns="http://www.w3.org/2000/svg" xmlns:xlink="http://www.w3.org/1999/xlink" x="0px" y="0px"
	 width="283.46px" height="85.039px" viewBox="0 0 283.46 85.039" enable-background="new 0 0 283.46 85.039" xml:space="preserve">
<polygon fill="#2E2E2E" points="25.809,36.19 25.809,43.219 32.7,43.219 32.7,44.376 25.809,44.376 25.809,54.381 24.48,54.381 
	24.48,35.037 32.894,35.037 32.894,36.19 "/>
<polygon fill="#2E2E2E" points="40.097,53.226 45.409,53.226 45.409,54.381 38.768,54.381 38.768,35.037 40.097,35.037 "/>
<polygon fill="#2E2E2E" points="46.579,35.037 48.046,35.037 54.19,44.837 60.333,35.037 61.8,35.037 54.854,46.119 54.854,54.38 
	53.526,54.38 53.526,46.119 "/>
<polygon fill="#2E2E2E" points="67.509,36.19 67.509,43.219 75.919,43.219 75.919,44.376 67.509,44.376 67.509,53.226 
	76.141,53.226 76.141,54.381 66.179,54.381 66.179,35.037 76.141,35.037 76.141,36.19 "/>
<path fill="#2E2E2E" d="M92.532,54.38H91.01l-6.81-9.158h-0.661v9.158H82.21V35.037h2.601c0.849,0.017,1.678,0.069,2.49,0.155
	c0.811,0.085,1.568,0.367,2.27,0.846c0.755,0.477,1.295,1.083,1.62,1.815c0.32,0.733,0.482,1.51,0.482,2.329
	c0,1.672-0.564,2.934-1.689,3.786c-1.124,0.854-2.554,1.271-4.289,1.254L92.532,54.38z M85.227,44.067
	c0.646,0.018,1.286-0.017,1.922-0.103c0.635-0.087,1.212-0.342,1.731-0.77c0.498-0.377,0.867-0.834,1.104-1.373
	c0.239-0.539,0.362-1.1,0.362-1.681c0-0.719-0.181-1.402-0.54-2.051c-0.36-0.653-0.919-1.13-1.675-1.439
	c-0.332-0.153-0.691-0.259-1.079-0.319c-0.389-0.06-0.784-0.099-1.189-0.116h-0.566h-0.569h-0.166h-0.166l-0.857-0.026v7.877H85.227
	z"/>
<path fill="#2E2E2E" d="M108.313,37.5l-0.939,0.718c-0.463-0.683-1.038-1.231-1.731-1.643c-0.691-0.408-1.525-0.614-2.502-0.614
	c-1.125,0-2.062,0.365-2.811,1.09c-0.747,0.727-1.12,1.595-1.12,2.604c0,0.856,0.309,1.527,0.927,2.015
	c0.617,0.487,1.294,0.901,2.034,1.244c0.129,0.067,0.262,0.132,0.4,0.19c0.138,0.062,0.272,0.118,0.402,0.17l3.985,1.896
	c0.792,0.48,1.388,1.028,1.785,1.644c0.395,0.615,0.595,1.358,0.595,2.231c0,1.607-0.665,2.939-1.992,4.001s-2.84,1.591-4.539,1.591
	c-1.458,0-2.727-0.375-3.805-1.129c-1.08-0.752-1.86-1.753-2.337-3.001l1.161-0.513c0.443,1.043,1.081,1.889,1.909,2.54
	c0.832,0.648,1.874,0.974,3.128,0.974c1.365,0,2.563-0.438,3.598-1.32c1.032-0.88,1.549-1.964,1.549-3.246
	c0-0.873-0.317-1.566-0.955-2.09c-0.636-0.521-1.343-0.961-2.117-1.323c-0.184-0.085-0.374-0.169-0.568-0.255
	c-0.193-0.085-0.383-0.171-0.566-0.256l-3.765-1.874c-0.682-0.374-1.212-0.85-1.59-1.423c-0.377-0.573-0.566-1.245-0.566-2.014
	c0-1.436,0.498-2.613,1.493-3.528c0.997-0.914,2.28-1.372,3.848-1.372c1.053,0,2.038,0.243,2.96,0.731
	c0.924,0.486,1.634,1.151,2.13,1.989V37.5z"/>
<path fill="#2E2E2E" d="M129.313,36.624v2.661c-0.768-0.785-1.664-1.402-2.688-1.855c-1.023-0.453-2.09-0.677-3.197-0.677
	c-2.15,0-3.984,0.797-5.5,2.391c-1.519,1.596-2.278,3.458-2.278,5.589c0,2.115,0.764,3.977,2.291,5.577
	c1.526,1.604,3.371,2.408,5.539,2.408c1.092,0,2.145-0.234,3.159-0.704c1.017-0.469,1.908-1.087,2.676-1.857v2.637
	c-0.837,0.615-1.75,1.085-2.737,1.408c-0.989,0.323-1.997,0.484-3.021,0.484c-2.73,0-5.088-0.963-7.074-2.892
	c-1.988-1.926-2.981-4.255-2.981-6.983c0-2.764,0.984-5.131,2.955-7.101c1.97-1.97,4.336-2.955,7.1-2.955
	c1.076,0,2.089,0.152,3.045,0.461c0.954,0.306,1.859,0.786,2.712,1.433V36.624z"/>
<polygon fill="#2E2E2E" points="155.127,34.243 170.172,50.007 170.172,35.063 172.32,35.063 172.32,55.223 157.278,39.49 
	157.278,54.356 155.127,54.356 "/>
<path fill="#2E2E2E" d="M191.048,36.624v2.661c-0.768-0.785-1.662-1.402-2.685-1.855c-1.024-0.453-2.092-0.677-3.196-0.677
	c-2.15,0-3.986,0.797-5.504,2.391c-1.517,1.596-2.274,3.458-2.274,5.589c0,2.115,0.763,3.977,2.288,5.577
	c1.527,1.604,3.373,2.408,5.541,2.408c1.089,0,2.144-0.234,3.158-0.704c1.016-0.469,1.904-1.087,2.672-1.857v2.637
	c-0.835,0.615-1.747,1.085-2.736,1.408c-0.988,0.323-1.994,0.484-3.018,0.484c-2.731,0-5.089-0.963-7.075-2.892
	c-1.988-1.926-2.982-4.255-2.982-6.983c0-2.764,0.983-5.131,2.957-7.101c1.97-1.97,4.337-2.955,7.101-2.955
	c1.072,0,2.088,0.152,3.044,0.461c0.955,0.306,1.858,0.786,2.71,1.433V36.624z"/>
<rect x="194.733" y="35.063" fill="#2E2E2E" width="2.151" height="19.293"/>
<polygon fill="#2E2E2E" points="200.797,35.063 210.801,35.063 210.801,37.061 202.949,37.061 202.949,42.789 210.569,42.789 
	210.569,44.786 202.949,44.786 202.949,52.359 210.801,52.359 210.801,54.356 200.797,54.356 "/>
<path fill="#2E2E2E" d="M216.608,54.356h-2.149V35.063h2.79c1.825,0.016,3.461,0.367,4.899,1.049
	c1.441,0.684,2.163,2.115,2.163,4.299c0,1.482-0.437,2.709-1.307,3.672c-0.868,0.963-2.046,1.516-3.529,1.65l6.14,8.623h-2.637
	l-5.831-8.469h-0.539V54.356z M216.608,43.991h0.666c0.017,0.018,0.031,0.025,0.037,0.025h0.042c1.192,0,2.293-0.203,3.299-0.614
	c1.007-0.41,1.507-1.361,1.507-2.85c0-1.594-0.491-2.573-1.483-2.941c-0.991-0.367-2.13-0.551-3.427-0.551h-0.641V43.991z"/>
<path fill="#2E2E2E" d="M246.264,44.657v0.32v0.269c0,1.177-0.129,2.272-0.385,3.289c-0.256,1.013-0.793,2.001-1.612,2.955
	c-0.888,1.023-1.961,1.812-3.225,2.366c-1.261,0.555-2.565,0.83-3.912,0.83c-2.713,0-5.045-0.972-7-2.915
	c-1.954-1.946-2.929-4.272-2.929-6.985c0-2.764,0.981-5.125,2.939-7.085c1.965-1.962,4.336-2.945,7.119-2.945
	c1.688,0,3.212,0.364,4.577,1.087c1.366,0.727,2.559,1.754,3.581,3.084l-1.56,1.433c-0.803-1.127-1.754-2.01-2.854-2.649
	c-1.102-0.639-2.358-0.958-3.773-0.958c-2.2,0-4.065,0.797-5.591,2.391c-1.526,1.596-2.289,3.486-2.289,5.667
	c0,1.023,0.192,2.005,0.587,2.943c0.393,0.938,0.946,1.773,1.663,2.508c0.683,0.684,1.484,1.253,2.407,1.714
	c0.919,0.46,1.866,0.707,2.839,0.742h0.114h0.115h0.243c0.078,0,0.158-0.01,0.24-0.026c1.605-0.104,3.076-0.705,4.404-1.806
	c1.331-1.099,1.993-2.503,1.993-4.208h-5.73v-2.021H246.264z"/>
<polygon fill="#2E2E2E" points="249.306,35.063 259.312,35.063 259.312,37.061 251.459,37.061 251.459,42.789 259.081,42.789 
	259.081,44.786 251.459,44.786 251.459,52.359 259.312,52.359 259.312,54.356 249.306,54.356 "/>
<path fill="#2F2F2F" d="M141.75,33.495c3.05,0.018,5.674,1.113,7.872,3.283c2.198,2.169,3.297,4.787,3.297,7.857
	c0,3.089-1.099,5.696-3.297,7.829c-2.198,2.131-4.822,3.197-7.872,3.197c-3.051,0-5.675-1.066-7.871-3.197
	c-2.199-2.133-3.297-4.74-3.297-7.829c0-3.071,1.098-5.688,3.297-7.857c2.196-2.17,4.82-3.254,7.871-3.254V33.495z"/>
<path fill="#649E33" d="M136.068,27.653c-0.433,0.433-0.433,1.137,0,1.573c0.436,0.433,1.14,0.433,1.574,0
	c2.4-2.4,6.305-2.4,8.702,0c0.436,0.433,1.139,0.433,1.572,0c0.218-0.218,0.328-0.502,0.328-0.786c0-0.287-0.11-0.57-0.328-0.787
	C144.65,24.386,139.335,24.386,136.068,27.653"/>
<path fill="#E1AA35" d="M132.086,23.877c-0.437,0.434-0.437,1.14,0,1.574c0.433,0.434,1.136,0.434,1.57,0
	c4.54-4.54,11.924-4.54,16.464,0c0.434,0.434,1.139,0.434,1.573,0c0.216-0.218,0.324-0.501,0.324-0.788
	c0-0.284-0.108-0.57-0.324-0.787C146.287,18.472,137.489,18.472,132.086,23.877"/>
<path fill="#D77B2E" d="M128.729,20.523c-0.435,0.433-0.435,1.139,0,1.573c0.433,0.434,1.137,0.434,1.572,0
	c6.389-6.39,16.784-6.39,23.175-0.001c0.435,0.435,1.139,0.435,1.569,0c0.22-0.215,0.329-0.502,0.329-0.786
	s-0.109-0.569-0.329-0.786C147.793,13.267,135.985,13.267,128.729,20.523"/>
<path fill="#649E33" d="M147.709,62.205c0.434-0.433,0.434-1.138,0-1.572c-0.436-0.435-1.139-0.435-1.574,0
	c-2.399,2.397-6.304,2.397-8.701,0c-0.435-0.435-1.14-0.435-1.575,0c-0.218,0.219-0.326,0.502-0.326,0.786s0.108,0.57,0.326,0.786
	C139.125,65.472,144.441,65.472,147.709,62.205"/>
<path fill="#E1AA35" d="M151.693,65.98c0.434-0.434,0.434-1.138,0-1.573c-0.438-0.434-1.14-0.434-1.572,0
	c-4.541,4.539-11.925,4.539-16.465,0c-0.433-0.434-1.138-0.434-1.57,0c-0.219,0.217-0.328,0.503-0.328,0.787
	c0,0.285,0.109,0.569,0.328,0.786C137.489,71.389,146.287,71.389,151.693,65.98"/>
<path fill="#D77B2E" d="M155.046,69.335c0.437-0.433,0.437-1.139,0-1.572c-0.431-0.436-1.135-0.436-1.569,0
	c-6.391,6.389-16.785,6.389-23.175,0.002c-0.433-0.436-1.137-0.436-1.572,0c-0.218,0.214-0.328,0.501-0.328,0.784
	c0,0.285,0.109,0.57,0.328,0.786C135.986,76.592,147.793,76.592,155.046,69.335"/>
<path fill="#FFFFFF" d="M150.983,41.265c0.005-0.002,0.006-0.003,0.006-0.003c-0.003-0.023-0.009-0.044-0.019-0.064
	c-0.006-0.023-0.016-0.042-0.027-0.061c0,0-0.002,0.001-0.006,0.002c-0.021-0.031-0.051-0.058-0.086-0.083
	c-0.105-0.073-0.27-0.123-0.488-0.143c-0.5-0.05-0.998-0.028-1.497,0.075c-0.047,0.011-0.094,0.019-0.143,0.031
	c-0.046,0.013-0.095,0.022-0.142,0.036c-0.166,0.044-0.334,0.098-0.502,0.161c-0.925,0.351-1.807,0.654-2.729,1.007
	c-0.257,0.097-0.391,0.073-0.568-0.077c-0.43-0.354-7.191-5.24-7.191-5.24c-0.108-0.132-0.484-0.179-0.56-0.178
	c-0.292,0.005-0.305-0.043-0.625,0.002l4.627,5.321l0.752,1.451c0,0-3.125,1.082-6.162,2.775c0,0-2.353-1.746-2.527-1.781
	c-0.115-0.023-0.283-0.086-0.464-0.025l1.747,2.611c-0.082,0.059-0.154,0.131-0.187,0.211l0.081,0.238c0,0,0.094,0.079,0.308,0.084
	l0.404,3.086c0.178-0.063,0.274-0.192,0.348-0.283c0.11-0.133,0.705-2.996,0.705-2.996c3.289-0.72,6.449-2.016,6.449-2.016
	l0.362,1.586l0.103,7.02c0.276-0.167,0.262-0.188,0.49-0.372c0.057-0.044,0.305-0.336,0.298-0.505c0,0,1.81-8.098,1.905-8.645
	c0.04-0.23,0.124-0.336,0.383-0.428c0.93-0.332,1.801-0.668,2.731-1.003c0.77-0.274,1.401-0.7,1.933-1.249
	C150.896,41.597,150.992,41.411,150.983,41.265"/>
</svg>
